<svg id="Capa_1" enable-background="new 0 0 512 512" height="512" viewBox="0 0 512 512" width="512" xmlns="http://www.w3.org/2000/svg"><g><g><g><g><g><g><g><g><g><path d="m197.498 505.285c-113.193-26.461-197.498-128.028-197.498-249.285 0-26.865 4.138-52.763 11.812-77.092l21.678-49.588c23.694-41.529 58.68-75.782 100.776-98.58l49.558-20.425c22.891-6.713 47.113-10.315 72.176-10.315s49.285 3.602 72.177 10.316l49.597 20.446c42.078 22.798 77.049 57.043 100.736 98.559l21.678 49.588c7.674 24.328 11.812 50.226 11.812 77.091 0 121.208-84.237 222.742-197.361 249.253z" fill="#a3d4ff"/></g></g></g></g></g></g></g></g><path d="m282.715 86.422 13.335 13.335-10.478 8.846-79.284-79.283-1.184 2.277-21.281-21.281-18.091 46.233 10.212 86.811 92.682 92.682-2.056 18.723-32.359-32.359-16.326 37.432-50.23-50.23-2.727 3.691-41.58-41.581-111.536 7.191 27.85 27.851-3.5.911 193.472 193.472-40.827 84.039 20.1 20.1 105.732-.029c113.124-26.511 197.361-128.045 197.361-249.253 0-26.864-4.138-52.763-11.812-77.091l-19.987-45.719-102.427-102.428-71.295 25.534z" fill="#65b1fc"/><g><path d="m323.598 327.347c-10.672-.354-19.407 8.188-19.407 18.751v55.232c-.014.015-.024.025-.038.041l-5.389.375c-24.88 1.729-44.884 20.803-48.496 44.854l-11.768.102c3.435-28.423 25.573-51.535 53.995-55.976.013-.015.021-.024.033-.039v-45.243c0-.452.012-.901.035-1.348.598-11.347 9.937-24.178 22.074-26.035.031-.005 7.345 0 7.345 0v-104.068c0-9.869-8.001-17.87-17.87-17.87-9.869 0-17.87 8.001-17.87 17.87v110.952h-6.777v-119.673c0-9.69-7.535-17.942-17.219-18.287-10.167-.362-18.522 7.772-18.522 17.858v128.247h-5.622v-99.923c0-9.291-7.531-16.822-16.822-16.822-9.291 0-16.823 7.532-16.823 16.822v110.105h-5.622v-74.172c0-8.002-6.548-14.798-14.549-14.648-7.759.145-14.004 6.48-14.004 14.273v72.846 71.663 36.362h.222c1.583 17.914 12.042 33.273 26.949 41.66.013.007.02.02.02.034v13.99c18.799 4.395 38.392 6.72 58.527 6.72 20.177 0 39.808-2.334 58.639-6.747 0-7.179 0-11.532 0-11.532 0-.016.009-.03.023-.036 15.923-7.118 27.053-23.096 27.053-41.636v-105.51c0-10.187-7.935-18.854-18.117-19.192z" fill="#d47f6c"/></g><g fill="#bf6758"><path d="m292.496 390.727c.013-.015.021-.024.033-.039v-45.243c0-.452.012-.901.035-1.348.598-11.347 9.937-24.178 22.074-26.035.031-.005 7.345 0 7.345 0v-104.069c0-9.869-8.001-17.87-17.87-17.87s-17.87 8.001-17.87 17.87v110.952h-6.777v-119.673c0-9.69-7.535-17.942-17.219-18.287-2.25-.08-4.402.276-6.404.958v222.083c9.55-10.046 22.298-17.057 36.653-19.299z"/><path d="m323.598 327.347c-10.672-.354-19.407 8.188-19.407 18.751v55.232c-.014.015-.024.025-.038.041l-5.389.375c-18.681 1.298-34.612 12.376-42.92 27.996v82.256c.052 0 .104.002.156.002 20.177 0 39.808-2.334 58.639-6.747 0-7.179 0-11.532 0-11.532 0-.016.009-.03.023-.036 15.923-7.118 27.053-23.096 27.053-41.636v-105.51c0-10.187-7.935-18.854-18.117-19.192z"/></g><g><path d="m500.188 178.909c-5.49-17.406-12.79-34.01-21.678-49.589-12.54 7.875-24.159 15.171-24.159 15.171-.006.004-.014.004-.02 0-6.622-4.432-15.508-4.855-22.68-.352l-40.82 25.633c-3.941 2.475-5.366 7.651-3.024 11.672 2.456 4.215 7.883 5.519 11.969 2.953l21.368-13.418c.01.002.016.003.025.005l1.454 1.994c6.714 9.206 18.953 12.311 29.135 7.865l2.898 4.528c-11.831 5.577-26.151 2.627-34.774-7.291-.009-.001-.014-.002-.023-.004l-17.503 10.992c-.175.11-.352.214-.53.314-4.535 2.525-11.768 2.029-15.435-2.215-.01-.011-1.784-2.842-1.784-2.842l-40.262 25.283c-3.818 2.398-4.97 7.437-2.572 11.255 2.397 3.818 7.437 4.97 11.255 2.572l42.925-26.955 1.646 2.622-46.299 29.074c-3.749 2.354-5.111 7.274-2.892 11.104 2.33 4.021 7.507 5.277 11.409 2.827l49.616-31.157 1.366 2.175-38.658 24.276c-3.594 2.257-4.679 7-2.421 10.595 2.257 3.595 7.001 4.679 10.595 2.421l42.597-26.749 1.366 2.175-28.696 18.02c-3.096 1.944-4.134 6.128-2.133 9.188 1.941 2.966 5.909 3.843 8.925 1.95l28.182-17.698 27.725-17.41 14.068-8.834-.054-.085c6.546-4.964 9.948-12.743 9.57-20.547 0-.006.003-.013.009-.016 0-.001 8.193-5.146 18.314-11.502z" fill="#d47f6c"/></g><g><path d="m377.774 30.762c-15.624-8.464-32.228-15.351-49.597-20.446-3.388 6.865-5.768 11.687-5.768 11.687-.003.007-.01.011-.017.01-7.962-.304-15.752 3.992-19.5 11.587l-21.332 43.224c-2.059 4.173-.561 9.329 3.542 11.525 4.3 2.303 9.606.569 11.741-3.758l11.167-22.627c.009-.003.015-.005.024-.009l2.283.936c10.542 4.321 22.593.552 28.936-8.57l4.842 2.337c-7.154 10.949-20.896 15.942-33.437 12.014-.008.004-.014.006-.022.009l-9.147 18.534c-.091.185-.187.367-.287.545-2.539 4.527-8.959 7.896-14.307 6.203-.014-.004-3.009-1.485-3.009-1.485l-21.041 42.633c-1.995 4.043-.335 8.938 3.708 10.934s8.938.335 10.934-3.708l22.432-45.453 2.777 1.37-24.196 49.027c-1.959 3.969-.541 8.874 3.356 10.972 4.092 2.204 9.159.561 11.198-3.571l25.929-52.538 2.303 1.137-20.202 40.935c-1.878 3.806-.316 8.414 3.49 10.292 3.806 1.878 8.414.316 10.293-3.49l22.261-45.106 2.303 1.137-14.996 30.385c-1.618 3.278-.309 7.386 2.999 8.942 3.208 1.509 7.047.177 8.623-3.016l14.728-29.842 14.489-29.358 7.352-14.896-.091-.045c2.973-7.658 1.794-16.065-2.617-22.515-.004-.005-.004-.012-.001-.018-.002.001 3.385-6.864 7.857-15.924z" fill="#faa68e"/></g><g><path d="m11.812 178.909c5.49-17.406 12.79-34.01 21.678-49.589 12.54 7.875 24.159 15.171 24.159 15.171.006.004.014.004.02 0 6.622-4.432 15.508-4.855 22.68-.352l40.82 25.633c3.941 2.475 5.366 7.651 3.024 11.672-2.456 4.215-7.883 5.519-11.969 2.953l-21.368-13.418c-.01.002-.016.003-.025.005l-1.454 1.994c-6.714 9.206-18.953 12.311-29.135 7.865l-2.898 4.528c11.831 5.577 26.151 2.627 34.774-7.291.009-.001.014-.002.023-.004l17.503 10.992c.175.11.352.214.53.314 4.535 2.525 11.768 2.029 15.435-2.215.01-.011 1.784-2.842 1.784-2.842l40.262 25.283c3.818 2.398 4.97 7.437 2.572 11.255-2.397 3.818-7.437 4.97-11.255 2.572l-42.925-26.955-1.646 2.622 46.299 29.074c3.749 2.354 5.111 7.274 2.892 11.104-2.33 4.021-7.507 5.277-11.409 2.827l-49.616-31.157-1.366 2.175 38.658 24.276c3.594 2.257 4.679 7 2.421 10.595-2.257 3.595-7.001 4.679-10.595 2.421l-42.597-26.749-1.366 2.175 28.696 18.02c3.096 1.944 4.134 6.128 2.133 9.188-1.941 2.966-5.909 3.843-8.925 1.95l-28.182-17.698-27.725-17.41-14.068-8.834.054-.085c-6.546-4.964-9.948-12.743-9.57-20.547 0-.006-.003-.013-.009-.016 0-.001-8.193-5.146-18.314-11.502z" fill="#ffeee5"/></g><g><path d="m134.226 30.762c15.624-8.464 32.228-15.351 49.597-20.446 3.388 6.865 5.768 11.687 5.768 11.687.003.007.01.011.017.01 7.962-.304 15.752 3.992 19.5 11.587l21.332 43.224c2.059 4.173.561 9.329-3.542 11.525-4.3 2.303-9.606.569-11.741-3.758l-11.167-22.627c-.009-.003-.015-.005-.024-.009l-2.283.936c-10.542 4.321-22.593.552-28.936-8.57l-4.842 2.337c7.154 10.949 20.896 15.942 33.437 12.014.008.004.014.006.022.009l9.147 18.534c.091.185.187.367.287.545 2.539 4.527 8.959 7.896 14.307 6.203.014-.004 3.009-1.485 3.009-1.485l21.041 42.633c1.995 4.043.335 8.938-3.708 10.934s-8.938.335-10.934-3.708l-22.432-45.453-2.777 1.37 24.195 49.025c1.959 3.969.541 8.874-3.356 10.972-4.092 2.204-9.159.561-11.198-3.571l-25.929-52.538-2.303 1.137 20.202 40.935c1.878 3.806.316 8.414-3.49 10.292-3.806 1.878-8.414.316-10.293-3.49l-22.261-45.106-2.303 1.137 14.996 30.385c1.618 3.278.309 7.386-2.999 8.942-3.208 1.509-7.047.177-8.623-3.016l-14.728-29.842-14.489-29.358-7.352-14.896.091-.045c-2.973-7.658-1.794-16.065 2.617-22.515.004-.005.004-.012.001-.018.003.003-3.384-6.862-7.856-15.922z" fill="#ffcdbe"/></g><g><g><path d="m285.641 87.986c0-9.98 8.09-18.07 18.07-18.07 7.621 0 14.139 4.711 16.796 11.384 2.656-6.674 9.175-11.384 16.796-11.384 9.98 0 18.07 8.09 18.07 18.07 0 24.718-34.866 41.335-34.866 41.335s-34.866-17.817-34.866-41.335z" fill="#ff73a5"/></g></g><g><g><path d="m155.325 87.986c0-9.98 8.09-18.07 18.07-18.07 7.621 0 14.139 4.711 16.795 11.384 2.656-6.674 9.175-11.384 16.796-11.384 9.98 0 18.07 8.09 18.07 18.07 0 24.718-34.866 41.335-34.866 41.335s-34.865-17.817-34.865-41.335z" fill="#ff73a5"/></g></g><g><g><path d="m395.541 186.093c0-9.98 8.09-18.07 18.07-18.07 7.621 0 14.139 4.711 16.796 11.384 2.656-6.674 9.175-11.384 16.796-11.384 9.98 0 18.07 8.09 18.07 18.07 0 24.718-34.866 41.335-34.866 41.335s-34.866-17.816-34.866-41.335z" fill="#ffb9d5"/></g></g><g><g><path d="m47.596 186.093c0-9.98 8.09-18.07 18.07-18.07 7.621 0 14.139 4.711 16.796 11.384 2.656-6.674 9.175-11.384 16.795-11.384 9.98 0 18.07 8.09 18.07 18.07 0 24.718-34.866 41.335-34.866 41.335s-34.865-17.816-34.865-41.335z" fill="#ff73a5"/></g></g></g></svg>